# xmcd
#
# Track frame offsets:
#	150
#	16226
#	31501
#	55337
#	72014
#	92894
#	110334
#	128284
#	142986
#	160311
#	173582
#	194877
#	210516
#
# Disc length: 3028 seconds
#
# Revision: 0
# Processed by: cddbd v1.4PL0 Copyright (c) Steve Scherf et al.
# Submitted via: dBpowerAMP V4.0
#
DISCID=a40bd20d
DTITLE=Backslide Cats - Only Good For The Blues
DYEAR=1900
DGENRE=Blues
TTITLE0=Only Good For The Blues
TTITLE1=Living Our Lives Alone
TTITLE2=Heartbeat Away
TTITLE3=Everywhere
TTITLE4=Shadow Blues
TTITLE5=Low and Lonely Blues
TTITLE6=Dead and Gone
TTITLE7=Moonshine Blues
TTITLE8=Soothing
TTITLE9=Take My Hand
TTITLE10=Do Your Thing
TTITLE11=Tears On My Pillow
TTITLE12=Gone
EXTD=
EXTT0=
EXTT1=
EXTT2=
EXTT3=
EXTT4=
EXTT5=
EXTT6=
EXTT7=
EXTT8=
EXTT9=
EXTT10=
EXTT11=
EXTT12=
PLAYORDER=
